<svg version="1.1" xmlns="http://www.w3.org/2000/svg" xmlns:xlink="http://www.w3.org/1999/xlink" width="48" height="48"><defs><linearGradient x1="15.81174" y1="13.76468" x2="41.07757" y2="43.12464" gradientUnits="userSpaceOnUse" id="color-1"><stop offset="0" stop-color="#000000" stop-opacity="0.64"></stop><stop offset="1" stop-color="#000000" stop-opacity="0"></stop></linearGradient><filter id="dropshadow-base"><feColorMatrix type="matrix" values="0 0 0 0 0  0 0 0 0 0  0 0 0 0 0  0 0 0 .8 0"></feColorMatrix> <feOffset dx="0" dy="1"></feOffset> <feGaussianBlur stdDeviation="1"></feGaussianBlur> <feComposite in="SourceGraphic"></feComposite></filter><filter id="dropshadow-banner" x="-10%" y="-10%" width="120%" height="130%"><feColorMatrix type="matrix" values="0 0 0 0 0  0 0 0 0 0  0 0 0 0 0  0 0 0 .4 0"></feColorMatrix> <feOffset dx="0" dy="1"></feOffset> <feGaussianBlur stdDeviation="0.5"></feGaussianBlur> <feComposite in="SourceGraphic"></feComposite></filter></defs><g fill="none" fill-rule="nonzero" stroke="none" stroke-width="none" stroke-linecap="butt" stroke-linejoin="miter" stroke-miterlimit="10" stroke-dasharray="" stroke-dashoffset="0" font-family="none" font-weight="none" font-size="none" text-anchor="none" style="mix-blend-mode: normal"><path d="M7,43c-1.10457,0 -2,-0.89543 -2,-2v-34c0,-1.10457 0.89543,-2 2,-2h34c1.10457,0 2,0.89543 2,2v34c0,1.10457 -0.89543,2 -2,2z" id="base 1 5 1" fill="#1268ff" stroke-width="1"></path><path d="M24.70106,34.23532h5.44013c1.131,0 2.04706,-0.91606 2.04706,-2.04706v-9.53426h-2.36954l2.04706,2.04706v8.18826l-2.55883,-1.5353l-2.55883,1.5353l-2.04706,-2.04706zM40.47817,23.2534c0.37039,0.37039 0.59941,0.88216 0.59941,1.44766v16.37651c0,0.88311 -0.55851,1.63518 -1.34176,1.92243l-13.693,0c-0.2817,-0.10331 -0.53432,-0.26674 -0.74235,-0.47477c0,0 0,0 0,0l-8.88931,-8.88931c-0.37039,-0.37039 -0.59941,-0.88216 -0.59941,-1.44766v-16.37651c0,-1.131 0.91606,-2.04706 2.04706,-2.04706h12.28238c0.5655,0 1.07727,0.22902 1.44766,0.59941z" fill="url(#color-1)" stroke-width="1"></path><path d="M30.14119,13.76468h-12.28238c-1.131,0 -2.04706,0.91606 -2.04706,2.04706v16.37651c0,1.131 0.91606,2.04706 2.04706,2.04706h12.28238c1.131,0 2.04706,-0.91606 2.04706,-2.04706v-16.37651c0,-1.131 -0.91606,-2.04706 -2.04706,-2.04706zM17.85881,15.81174h5.11766v8.18826l-2.55883,-1.5353l-2.55883,1.5353z" fill="none" stroke-width="0"></path><path d="M32.18826,15.81174v16.37651c0,1.131 -0.91606,2.04706 -2.04706,2.04706h-12.28238c-1.131,0 -2.04706,-0.91606 -2.04706,-2.04706v-16.37651c0,-1.131 0.91606,-2.04706 2.04706,-2.04706h12.28238c1.131,0 2.04706,0.91606 2.04706,2.04706zM17.85881,24l2.55883,-1.5353l2.55883,1.5353v-8.18826h-5.11766z" fill="#ffffff" stroke-width="0"></path><path d="M2,24c0,-12.15026 9.84974,-22 22,-22c12.15026,0 22,9.84974 22,22c0,12.15026 -9.84974,22 -22,22c-12.15026,0 -22,-9.84974 -22,-22z" id="base 1 1 1" fill="none" stroke-width="1"></path><g fill="#000000" stroke-width="1" font-family="Roboto, sans-serif" font-weight="400" font-size="14" text-anchor="start"></g><rect x="2" y="2" width="44" height="22" fill="none" stroke-width="1"></rect><path d="M2,24v-22h44v22z" fill="none" stroke-width="1"></path><path d="M2,24v-22h44v22z" fill="none" stroke-width="1"></path><path d="M2,24v-22h44v22z" fill="none" stroke-width="1"></path><path d="M5,7c0,-1.10457 0.89543,-2 2,-2h34c1.10457,0 2,0.89543 2,2v17h-38z" id="base 1 2 1" fill-opacity="0.1" fill="#000000" stroke-width="1"></path><path d="M2,24v-22h44v22z" fill="none" stroke-width="1"></path></g></svg>